<svg width="24" height="21" viewBox="0 0 24 21" fill="none" xmlns="http://www.w3.org/2000/svg">
<path d="M24 17.2505V19.2505C24 19.5213 23.901 19.7557 23.7031 19.9536C23.5052 20.1515 23.2708 20.2505 23 20.2505H1C0.729167 20.2505 0.494792 20.1515 0.296875 19.9536C0.0989583 19.7557 0 19.5213 0 19.2505V17.2505C0 16.9797 0.0989583 16.7453 0.296875 16.5474C0.494792 16.3494 0.729167 16.2505 1 16.2505H23C23.2708 16.2505 23.5052 16.3494 23.7031 16.5474C23.901 16.7453 24 16.9797 24 17.2505ZM24 9.25049V11.2505C24 11.5213 23.901 11.7557 23.7031 11.9536C23.5052 12.1515 23.2708 12.2505 23 12.2505H1C0.729167 12.2505 0.494792 12.1515 0.296875 11.9536C0.0989583 11.7557 0 11.5213 0 11.2505V9.25049C0 8.97966 0.0989583 8.74528 0.296875 8.54736C0.494792 8.34945 0.729167 8.25049 1 8.25049H23C23.2708 8.25049 23.5052 8.34945 23.7031 8.54736C23.901 8.74528 24 8.97966 24 9.25049ZM24 1.25049V3.25049C24 3.52132 23.901 3.7557 23.7031 3.95361C23.5052 4.15153 23.2708 4.25049 23 4.25049H1C0.729167 4.25049 0.494792 4.15153 0.296875 3.95361C0.0989583 3.7557 0 3.52132 0 3.25049V1.25049C0 0.979654 0.0989583 0.745279 0.296875 0.547363C0.494792 0.349447 0.729167 0.250488 1 0.250488H23C23.2708 0.250488 23.5052 0.349447 23.7031 0.547363C23.901 0.745279 24 0.979654 24 1.25049Z" fill="white"/>
</svg>
